<?xml version="1.0" encoding="utf-8"?>
<!-- Generator: Adobe Illustrator 19.2.1, SVG Export Plug-In . SVG Version: 6.00 Build 0)  -->
<svg version="1.1" id="layer" xmlns="http://www.w3.org/2000/svg" xmlns:xlink="http://www.w3.org/1999/xlink" x="0px" y="0px"
	 viewBox="0 0 652 652" style="enable-background:new 0 0 652 652;" xml:space="preserve">
<style type="text/css">
	.st0{fill:#A60000;}
</style>
<g>
	<g>
		<g>
			<path class="st0" d="M20.7,360.4c0.3-4.9,0.6-12.2,0.6-18.6v-87.2h13v45.3h0.3c4.6-8,13-13.3,24.6-13.3
				c17.9,0,30.6,14.9,30.4,36.8c0,25.8-16.2,38.6-32.3,38.6c-10.4,0-18.8-4-24.1-13.6h-0.4L32,360.4L20.7,360.4L20.7,360.4z
				 M34.3,331.5c0,1.6,0.3,3.3,0.6,4.8c2.5,9.1,10.1,15.3,19.7,15.3c13.7,0,21.9-11.2,21.9-27.7c0-14.5-7.5-26.8-21.5-26.8
				c-8.9,0-17.3,6.1-20,16.1c-0.3,1.5-0.7,3.3-0.7,5.4L34.3,331.5L34.3,331.5z"/>
			<path class="st0" d="M146.1,360.4l-1-9.1h-0.4c-4,5.7-11.8,10.7-22.1,10.7c-14.6,0-22.1-10.3-22.1-20.7c0-17.4,15.5-27,43.4-26.8
				V313c0-6-1.6-16.7-16.4-16.7c-6.7,0-13.7,2.1-18.8,5.4l-3-8.6c6-3.9,14.6-6.4,23.7-6.4c22.1,0,27.4,15.1,27.4,29.5v27
				c0,6.3,0.3,12.4,1.2,17.3L146.1,360.4L146.1,360.4z M144.1,323.6c-14.3-0.3-30.5,2.2-30.5,16.2c0,8.5,5.7,12.5,12.4,12.5
				c9.4,0,15.3-6,17.4-12.1c0.4-1.3,0.7-2.8,0.7-4.2V323.6z"/>
			<path class="st0" d="M178,254.6h13.1v105.8H178V254.6z"/>
			<path class="st0" d="M211.4,347c3.9,2.5,10.7,5.2,17.3,5.2c9.5,0,14-4.8,14-10.7c0-6.3-3.7-9.7-13.4-13.3
				c-13-4.6-19.1-11.8-19.1-20.4c0-11.6,9.4-21.2,24.9-21.2c7.3,0,13.7,2.1,17.7,4.5l-3.3,9.5c-2.8-1.8-8-4.2-14.8-4.2
				c-7.7,0-12.1,4.5-12.1,9.8c0,6,4.3,8.6,13.7,12.2c12.5,4.8,18.9,11,18.9,21.8c0,12.7-9.8,21.6-27,21.6c-7.9,0-15.2-1.9-20.3-4.9
				L211.4,347z"/>
			<path class="st0" d="M312.1,360.4l-1-9.1h-0.4c-4,5.7-11.8,10.7-22.1,10.7c-14.6,0-22.1-10.3-22.1-20.7c0-17.4,15.5-27,43.4-26.8
				V313c0-6-1.6-16.7-16.4-16.7c-6.7,0-13.7,2.1-18.8,5.4l-3-8.6c6-3.9,14.6-6.4,23.7-6.4c22.1,0,27.4,15.1,27.4,29.5v27
				c0,6.3,0.3,12.4,1.2,17.3L312.1,360.4L312.1,360.4z M310.2,323.6c-14.3-0.3-30.5,2.2-30.5,16.2c0,8.5,5.7,12.5,12.4,12.5
				c9.4,0,15.3-6,17.4-12.1c0.4-1.3,0.7-2.8,0.7-4.2V323.6z"/>
			<path class="st0" d="M344,307.8c0-7.5-0.1-13.6-0.6-19.5h11.5l0.6,11.6h0.5c4-6.9,10.7-13.3,22.6-13.3c9.8,0,17.3,6,20.4,14.5
				h0.3c2.2-4,5.1-7.1,8.1-9.4c4.3-3.3,9.1-5.1,16-5.1c9.5,0,23.7,6.3,23.7,31.3v42.5h-12.8v-40.8c0-13.9-5.1-22.2-15.6-22.2
				c-7.5,0-13.3,5.5-15.5,11.9c-0.6,1.8-1,4.2-1,6.6v44.6h-12.8v-43.2c0-11.5-5.1-19.8-15.1-19.8c-8.2,0-14.2,6.6-16.2,13.1
				c-0.7,1.9-1,4.2-1,6.4v43.5H344L344,307.8L344,307.8z"/>
			<path class="st0" d="M483,268c0.1,4.5-3.1,8-8.3,8c-4.6,0-7.9-3.6-7.9-8c0-4.6,3.4-8.2,8.2-8.2C479.8,259.8,483,263.4,483,268z
				 M468.3,360.4v-72.1h13.1v72.1H468.3z"/>
			<path class="st0" d="M552.4,349.3h-0.3c-3.9,7.2-11.9,12.8-23.5,12.8c-16.8,0-30.6-14.6-30.6-36.5c0-27,17.4-38.9,32.6-38.9
				c11.2,0,18.6,5.5,22.2,12.5h0.3l0.4-10.9H566c-0.3,6.1-0.4,12.4-0.4,19.8v81.8h-13.1L552.4,349.3L552.4,349.3z M552.4,317.5
				c0-1.8-0.1-3.9-0.6-5.5c-1.9-8-8.9-14.9-18.8-14.9c-13.6,0-21.8,11.5-21.8,27.7c0,14.3,6.9,26.8,21.3,26.8
				c8.5,0,15.8-5.2,18.8-14.3c0.6-1.8,1-4.3,1-6.3V317.5z"/>
		</g>
	</g>
</g>
<g>
	<g>
		<g>
			<path class="st0" d="M620.7,302.8c0,9.2-7.3,16.5-16.7,16.5c-9.3,0-16.8-7.3-16.8-16.5c0-9,7.5-16.3,16.8-16.3
				C613.4,286.5,620.7,293.8,620.7,302.8z M591.4,302.8c0,7.3,5.4,13,12.7,13c7.2,0,12.4-5.8,12.4-12.9c0-7.3-5.3-13.1-12.5-13.1
				S591.4,295.7,591.4,302.8z M601.4,311.4h-3.8v-16.3c1.5-0.3,3.6-0.5,6.3-0.5c3.1,0,4.5,0.5,5.7,1.2c0.9,0.7,1.6,2,1.6,3.6
				c0,1.8-1.4,3.2-3.4,3.8v0.2c1.6,0.6,2.5,1.8,3,4c0.5,2.5,0.8,3.5,1.2,4.1h-4.1c-0.5-0.6-0.8-2.1-1.3-4c-0.3-1.8-1.3-2.6-3.4-2.6
				h-1.8L601.4,311.4L601.4,311.4z M601.5,302.1h1.8c2.1,0,3.8-0.7,3.8-2.4c0-1.5-1.1-2.5-3.5-2.5c-1,0-1.7,0.1-2.1,0.2V302.1z"/>
		</g>
	</g>
</g>
</svg>
